#!OML:ASF E:\Mandelcareful walks\Project 1\Capture day 1\Session 1\Subject1.ASF
:FULLY-SPECIFIED
:DEGREES
1301
root -28.1667 16.1595 -15.7591 -1794.06 -62.2167 -3.70516
lowerback 4.19122 1.72657 0.181201
upperback 6.06918 2.19415 -0.121689
thorax 3.9222 1.05847 -0.244918
lowerneck -15.206 16.4398 8.59059
upperneck 23.4678 26.0974 -17.8035
head 14.3387 10.2431 -3.27931
rclavicle -8.44338e-014 1.09332e-014
rhumerus -37.178 10.8256 -72.5172
rradius 53.8085
rwrist -28.0405
rhand -29.7974 -37.6854
rfingers 7.12502
rthumb -3.12176 -67.6423
lclavicle -8.44338e-014 1.09332e-014
lhumerus -36.3622 22.0663 55.3023
lradius 20.9859
lwrist -0.944029
lhand -25.0623 -7.9784
lfingers 7.12502
lthumb 1.45135 21.9964
rfemur -1.93254 -15.4112 17.798
rtibia 25.2307
rfoot -16.3804 -21.0728
rtoes -9.72583
lfemur -29.6259 13.8901 -16.6007
ltibia 37.8819
lfoot -24.4946 13.5755
ltoes 16.2799
1302
root -28.2629 16.1587 -15.6569 -1794.65 -60.6594 -2.96712
lowerback 4.02215 1.85334 -0.444249
upperback 5.96914 2.36529 -0.222284
thorax 3.89197 1.12338 0.00301399
lowerneck -14.8576 16.3999 8.98463
upperneck 23.1108 25.9647 -18.0463
head 14.1989 10.2517 -3.47266
rclavicle -9.14409e-014 2.38542e-015
rhumerus -37.0496 9.54865 -72.3445
rradius 53.5495
rwrist -26.8744
rhand -27.9649 -36.0876
rfingers 7.12502
rthumb -1.352 -66.063
lclavicle -9.14409e-014 2.38542e-015
lhumerus -36.5495 21.4993 55.6749
lradius 21.769
lwrist 0.954872
lhand -25.0107 -8.38392
lfingers 7.12502
lthumb 1.50123 21.5905
rfemur -0.739473 -14.963 17.4683
rtibia 24.2013
rfoot -17.1414 -22.4228
rtoes -11.619
lfemur -30.2759 14.2361 -17.4108
ltibia 36.5192
lfoot -22.5787 18.6849
ltoes 6.06652
1303
root -28.3394 16.1724 -15.519 -1793.84 -59.042 -3.20234
lowerback 3.2442 2.27365 0.131533
upperback 5.57564 2.9644 -0.639256
thorax 3.96967 1.46271 -0.725642
lowerneck -14.3089 16.0462 10.2285
upperneck 23.1155 25.2055 -18.1135
head 14.1563 10.0726 -3.89268
rclavicle 1.88845e-015 2.38542e-015
rhumerus -37.7203 6.82129 -72.395
rradius 53.2025
rwrist -25.2233
rhand -26.1309 -34.4714
rfingers 7.12502
rthumb 0.419356 -64.4507
lclavicle 1.88845e-015 2.38542e-015
lhumerus -36.0504 19.5806 56.3352
lradius 22.5152
lwrist 2.78057
lhand -24.4021 -8.1869
lfingers 7.12502
lthumb 2.089 21.7826
rfemur -0.137783 -15.5786 17.45
rtibia 23.1096
rfoot -16.9636 -23.145
rtoes -13.0019
lfemur -31.1455 14.3001 -17.7794
ltibia 35.6038
lfoot -24.6372 21.6604
ltoes 6.24004
1304
root -28.4173 16.1784 -15.3825 -1791.77 -57.2246 -4.86908
lowerback 2.40574 2.28966 1.14699
upperback 5.36982 2.99423 -0.501815
thorax 4.27498 1.52029 -1.11787
lowerneck -14.4697 16.0399 10.3018
upperneck 23.1682 25.1602 -17.9906
head 14.1904 10.0625 -3.85512
rclavicle 1.51076e-014 3.97569e-016
rhumerus -37.4007 5.32165 -72.2029
rradius 52.8857
rwrist -23.7848
rhand -24.4642 -33.569
rfingers 7.12502
rthumb 2.02905 -63.5391
lclavicle 1.51076e-014 3.97569e-016
lhumerus -36.0294 19.0435 57.1579
lradius 23.3469
lwrist 4.34766
lhand -23.4386 -8.78243
lfingers 7.12502
lthumb 3.01957 21.1759
rfemur 0.423665 -15.9155 18.4831
rtibia 22.0946
rfoot -16.8721 -24.3359
rtoes -13.0407
lfemur -32.3164 15.2526 -17.5909
ltibia 34.9716
lfoot -26.565 23.4113
ltoes 7.44273
1305
root -28.5078 16.1819 -15.2374 -1792.5 -55.2237 -3.86432
lowerback 2.04625 2.16414 0.346445
upperback 5.25344 2.83792 -0.559474
thorax 4.31295 1.4133 -0.721997
lowerneck -14.4235 16.0535 10.4365
upperneck 23.188 25.1525 -17.935
head 14.1966 10.0828 -3.85676
rclavicle 1.48095e-014 -1.63003e-014
rhumerus -37.332 4.3763 -72.2332
rradius 52.7615
rwrist -23.1077
rhand -22.6893 -32.1902
rfingers 7.12502
rthumb 3.74319 -62.1371
lclavicle 1.48095e-014 -1.63003e-014
lhumerus -36.3078 18.2456 58.2567
lradius 24.2106
lwrist 6.03831
lhand -22.221 -9.81172
lfingers 7.12502
lthumb 4.19534 20.1267
rfemur 1.80108 -16.7556 17.6492
rtibia 21.1439
rfoot -16.3965 -25.1617
rtoes -12.4636
lfemur -32.7829 15.9681 -18.9465
ltibia 34.6229
lfoot -27.4764 24.5884
ltoes 8.89903
1306
root -28.5799 16.1771 -15.1022 -1791.87 -53.4532 -4.32835
lowerback 1.89882 2.16837 0.29565
upperback 5.03577 2.84656 -0.434053
thorax 4.15946 1.41517 -0.563379
lowerneck -14.4598 16.0351 10.3543
upperneck 23.147 25.0485 -17.629
head 14.0928 10.0724 -3.75056
rclavicle 1.0625e-013 -2.62396e-014
rhumerus -37.3479 3.54342 -72.5021
rradius 52.7286
rwrist -22.8468
rhand -20.8833 -30.6731
rfingers 7.12502
rthumb 5.48702 -60.582
lclavicle 1.0625e-013 -2.62396e-014
lhumerus -36.4578 16.9717 59.7098
lradius 24.9635
lwrist 7.59793
lhand -22.1633 -11.0495
lfingers 7.12502
lthumb 4.25104 18.8878
rfemur 2.80592 -16.2941 18.0676
rtibia 20.2083
rfoot -16.3219 -26.6608
rtoes -12.05
lfemur -33.6851 17.1743 -19.6568
ltibia 34.5025
lfoot -26.9061 26.4129
ltoes 8.50897
1307
root -28.6526 16.1594 -14.9432 -1792.13 -52.1548 -4.00171
lowerback 1.86276 2.34131 0.0589529
upperback 4.90876 3.09004 -0.686782
thorax 4.05239 1.53425 -0.688483
lowerneck -14.5051 16.0187 10.4956
upperneck 23.0749 24.8689 -17.2684
head 13.9879 10.0557 -3.67131
rclavicle 9.93923e-015 -1.11319e-014
rhumerus -37.4046 2.31031 -73.032
rradius 52.4282
rwrist -21.7221
rhand -18.8354 -29.3713
rfingers 7.12502
rthumb 7.46404 -59.2196
lclavicle 9.93923e-015 -1.11319e-014
lhumerus -36.4734 15.1174 61.2593
lradius 25.9024
lwrist 9.13093
lhand -22.0741 -11.2474
lfingers 7.12502
lthumb 4.33724 18.6882
rfemur 3.87147 -16.2023 17.5689
rtibia 19.8102
rfoot -15.8865 -27.4321
rtoes -11.5196
lfemur -34.3683 19.9917 -21.452
ltibia 34.4441
lfoot -24.9304 28.1451
ltoes 3.67047
1308
root -28.722 16.1702 -14.7757 -1792.48 -50.9173 -3.63877
lowerback 1.84889 2.52685 -0.149365
upperback 4.85696 3.35135 -1.05708
thorax 4.02121 1.66508 -0.949193
lowerneck -14.6726 16.0706 10.8333
upperneck 23.0103 24.7779 -17.0285
head 13.981 10.0684 -3.63282
rclavicle 4.37326e-014 5.1684e-015
rhumerus -37.406 1.50047 -74.1743
rradius 52.5155
rwrist -21.8402
rhand -19.0708 -29.4597
rfingers 7.12502
rthumb 7.23685 -59.316
lclavicle 4.37326e-014 5.1684e-015
lhumerus -36.3711 13.1377 62.8961
lradius 27.0314
lwrist 10.5717
lhand -21.8322 -10.7609
lfingers 7.12502
lthumb 4.57079 19.1698
rfemur 4.95147 -16.2821 16.9744
rtibia 19.5434
rfoot -14.8842 -28.0975
rtoes -8.51771
lfemur -33.8398 19.6429 -21.531
ltibia 34.6698
lfoot -29.9208 27.2173
ltoes 15.447
1309
root -28.7991 16.1191 -14.5968 -1791.06 -49.496 -5.14858
lowerback 1.52249 2.67458 0.465714
upperback 4.65612 3.54479 -0.849015
thorax 4.02426 1.78229 -1.06246
lowerneck -14.9504 16.1348 10.9354
upperneck 23.1383 24.7814 -16.739
head 14.0518 10.0869 -3.5168
rclavicle 2.52457e-014 7.15625e-015
rhumerus -37.4035 1.11862 -74.9564
rradius 52.6468
rwrist -21.7978
rhand -18.0372 -29.6514
rfingers 7.12502
rthumb 8.23444 -59.4709
lclavicle 2.52457e-014 7.15625e-015
lhumerus -36.5624 11.2231 64.9718
lradius 28.3629
lwrist 11.9758
lhand -21.883 -9.6669
lfingers 7.12502
lthumb 4.52171 20.2648
rfemur 5.51438 -16.3648 17.7905
rtibia 19.6461
rfoot -14.4119 -28.561
rtoes -6.54835
lfemur -35.3077 23.9609 -23.108
ltibia 35.0131
lfoot -22.6687 29.5301
ltoes -0.190004
